<svg height="18" width="24" xmlns="http://www.w3.org/2000/svg" viewBox="0 0 30 22">
	<rect x="14.2" y="7.3" fill="black" width="1.7" height="8.7"/>
	<path d="M22.9,6.5c-1.2,0-1.7-0.4-2.4-0.8C19.9,5.3,19.2,5,18.1,5c-1.1,0-2.1,0.6-3,1.7c0,0,0,0.1-0.1,0.1
	c0,0,0-0.1-0.1-0.1C14.2,5.5,13.2,5,11.9,5C9.9,5,9.1,6.5,6.8,6.5H5.7V17H7c1.3,0,2.1-0.4,3-0.9c0.5-0.3,1.3-0.6,1.9-0.6
	c1.4,0,2.7,1.5,2.7,1.5h1c0,0,1.1-1.5,2.5-1.5c1.3,0,2.7,1.5,4.7,1.5h1.5V6.5H22.9z M22.7,15.3c-2,0-2.9-1.5-4.6-1.5
	c-1.3,0-2.1,0.7-2.5,1.2c-0.2,0.3-0.4,0.3-0.6,0.5c-0.6-0.6-1.3-1.8-3.1-1.8c-1.9,0-2.2,1.5-4.6,1.5V8.2c2.3,0,3.2-1.5,4.6-1.5
	c0.7,0,1.2,0.3,1.8,0.9c0.5,0.5,0.8,0.9,0.8,0.9l0.6,1.3l0.5-1.4c0,0,0.3-0.4,0.7-0.8c0.6-0.6,1.2-0.9,1.7-0.9
	c1.6,0,2.6,1.5,4.6,1.5V15.3z"/>
</svg>